<svg id="Group_11283" data-name="Group 11283" xmlns="http://www.w3.org/2000/svg" width="598.558" height="212.656" viewBox="0 0 598.558 212.656">
  <path id="Path_12176" data-name="Path 12176" d="M-979.107,480.766c-9.234,0-18.47.114-27.7-.02-35.458-.518-61.7-26.937-61.477-60.989.162-24.844,16.562-46.907,39.77-55.218a69.438,69.438,0,0,1,22.921-3.725c18.078-.2,36.162,0,54.241-.194,3.8-.041,5.088,1.2,4.863,4.9-.275,4.538-.33,9.106-.153,13.648.128,3.3-1.2,4.267-4.344,4.252-17.821-.088-35.646-.244-53.462.062-10.464.18-20.456,2.847-28.059,10.528-12.758,12.89-16.26,29.971-5.539,46.765,7.095,11.114,17.621,16.317,30.679,16.693,17.934.516,35.867.682,53.806.133,6.679-.2,6.734-.011,6.856,6.52.078,4.285-.118,8.576.013,12.858.089,2.895-1.127,3.864-3.931,3.835-9.494-.1-18.989-.038-28.484-.038Z" transform="translate(1306.636 -360.619)" fill="#e4232c"/>
  <g id="Group_11282" data-name="Group 11282" transform="translate(0 167.773)">
    <path id="Path_12177" data-name="Path 12177" d="M-900.1,607.6c-2.487-2.042-2.259-3.724.029-5.684,5.982-5.125,7.168-9.785,4.507-17.2-1.664-4.637-8.209-8.844-13.919-8.947-4.067-.073-6.342,1.542-6.22,4.554.156,3.856,3.122,3.838,5.855,4.067.386.032.782-.043,1.169-.016a5.762,5.762,0,0,1,5.638,4.542c.671,2.635.269,5.005-2.174,6.929-1.971,1.55-4.069,1.5-6.259,1.5-1.673,0-3.2.336-3.841,2.038-.667,1.764-.749,3.578.746,5.07,4.781,4.775,9.517,9.6,14.393,14.272,1.616,1.55,3.564,2.746,5.713.505,2.057-2.147,1.629-4.233-.152-6.186A53.953,53.953,0,0,0-900.1,607.6Z" transform="translate(1273.184 -575.582)" fill="#202020"/>
    <path id="Path_12178" data-name="Path 12178" d="M-615.743,601.194c-1.264-2.158-1.161-3.455-.009-5.519a12.461,12.461,0,0,0-10.175-18.8c-2.974-.21-5.977-.105-8.964-.035-2.394.056-4.52.707-4.428,3.694.084,2.715,2.014,3.373,4.31,3.4,2.208.03,4.419-.006,6.628.023,3.8.048,6.8,2.415,6.881,5.4.082,3.139-2.612,5.276-6.788,5.393-2.594.073-5.2.046-7.777.266-2.048.174-3.429,1.334-3.308,3.56a3.374,3.374,0,0,0,3.571,3.383c2.464.124,4.936.074,7.4.118,3.984.07,6.879,2.323,6.9,5.349.02,2.973-2.434,5.11-6.471,5.394-2.718.191-5.463.007-8.176.226a3.12,3.12,0,0,0-3.2,3.263,3.262,3.262,0,0,0,3.265,3.62c1.937.149,3.895.032,5.843.032V620c1.3,0,2.6.038,3.9-.006A12.506,12.506,0,0,0-615.743,601.194Z" transform="translate(1212.561 -575.799)" fill="#202020"/>
    <path id="Path_12179" data-name="Path 12179" d="M-970.655,612.13c-6.354-10.881-12.834-21.688-18.834-32.778-1.063-1.964-2.88-4.359-5.745-3-2.719,1.289-3.063,4.443-1.344,7.4,3.867,6.65,7.679,13.332,11.528,19.993,2.709,4.689,5.36,9.416,8.212,14.017,1.014,1.636,2.618,3.342,4.76,2.5,1.549-.606,3.154-1.885,2.742-4A7.713,7.713,0,0,0-970.655,612.13Z" transform="translate(1291.138 -575.623)" fill="#202020"/>
    <path id="Path_12180" data-name="Path 12180" d="M-1081.691,586.059c2.4-1.462,3.053-3.6,1.708-5.986-1.4-2.475-3.632-2.081-5.755-.958-7.75,4.1-11.768,10.516-11.916,19.294-.34,9.686,4.423,16.133,12.675,20.5,1.867.989,3.148.563,4.423-.842,2.109-2.32,1.566-5.072-1.66-6.943-4.756-2.757-7.221-6.578-7.34-12.248C-1089.684,592.721-1086.5,588.992-1081.691,586.059Z" transform="translate(1313.081 -576.124)" fill="#202020"/>
    <path id="Path_12181" data-name="Path 12181" d="M-725.395,611c-4.549-2.951-6.748-6.938-6.373-12.4.168-2.455.029-4.932.029-7.4h.147c0-3.245-.02-6.49.006-9.735.025-3.068-1.85-5.489-4.377-5.575-2.686-.091-4.15,2.6-4.284,5.471-.012.258.023.519.023.778.01,5.972-.141,11.95.067,17.916a20.215,20.215,0,0,0,12.37,18.48,1.981,1.981,0,0,0,2.381-.212C-722.216,616.05-722.051,613.166-725.395,611Z" transform="translate(1234.689 -575.609)" fill="#202020"/>
    <path id="Path_12182" data-name="Path 12182" d="M-1335.383,575.815c-11.039-.027-22.079-.04-33.119.021-2.785.016-5.094.863-5.1,4.321-.006,3.547,2.417,4.168,5.169,4.2,5.454.068,10.909.02,16.365.02v.014c5.585,0,11.17.02,16.754-.007,3.846-.018,5.947-1.827,5.408-4.844C-1330.435,576.588-1332.765,575.822-1335.383,575.815Z" transform="translate(1373.603 -575.588)" fill="#202020"/>
    <path id="Path_12183" data-name="Path 12183" d="M-695.782,576.016c-2.55.077-4.5,2.034-4.4,5.317.177,5.71-.077,11.432.08,17.143.141,5.091-1.58,9.067-5.922,11.875a8.231,8.231,0,0,0-2.733,2.715c-.959,1.63-.767,3.17.6,4.129,1.143.8,2.013,2.295,4.292,1.059,7.175-3.891,11.575-9.3,11.6-17.722.01-2.987,0-5.975,0-8.963h.016c0-3.507-.073-7.016.024-10.52C-692.14,578.367-693.342,575.941-695.782,576.016Z" transform="translate(1227.908 -575.636)" fill="#202020"/>
    <path id="Path_12184" data-name="Path 12184" d="M-1001.061,607.848c-.884-.163-1.811-.056-2.712-.144-1.237-.123-2.847.514-3.572-.814-.79-1.447.436-2.612,1.232-3.773.957-1.4,1.868-2.956,1.3-4.653a4.115,4.115,0,0,0-3.393-2.846c-1.8-.29-2.895.5-3.84,1.949-4.3,6.577-8.077,13.452-11.818,20.354-1.949,3.6-1.174,6.019,2.674,6.59,2.522.374,4.193-1.746,4.846-3.531,1.825-4.99,5.207-6.313,10-5.492,1.684,0,3.37.063,5.05-.015,2.586-.12,3.52-2.03,3.659-4.134C-997.491,609.212-999.131,608.205-1001.061,607.848Z" transform="translate(1297.118 -579.923)" fill="#202020"/>
    <path id="Path_12185" data-name="Path 12185" d="M-1283.828,581.836c-.007-3.351-2.3-6.835-4.259-6.187-2.652.878-3.792,3.033-3.687,6.035.195,5.451.055,10.915.059,16.374,0,5.328.1,10.659-.031,15.984-.075,3.151.555,6.26,4.058,6.241,3.284-.018,3.911-3.067,3.89-6.085C-1283.873,603.41-1283.807,592.623-1283.828,581.836Z" transform="translate(1355.656 -575.539)" fill="#202020"/>
    <path id="Path_12186" data-name="Path 12186" d="M-931.381,575.836c-2.712-.114-4.3,2.356-4.284,5.444.062,11.293.048,22.586.028,33.88-.005,2.823,1.189,5.229,3.98,5.2,2.675-.031,4.047-2.238,3.99-5.177-.112-5.709-.033-11.422-.035-17.134,0-5.582-.118-11.167.044-16.744C-927.573,578.382-929.093,575.931-931.381,575.836Z" transform="translate(1277.547 -575.596)" fill="#202020"/>
    <path id="Path_12187" data-name="Path 12187" d="M-1202.172,598.485h.021c0-5.586-.134-11.176.051-16.756.106-3.206-1.752-5.489-4.186-5.688-2.546-.208-3.851,2.378-3.839,5.195.045,11.431.026,22.862.009,34.295,0,2.7,1.419,4.981,3.847,4.818,2.279-.154,4.316-1.864,4.169-5.109C-1202.355,609.664-1202.172,604.07-1202.172,598.485Z" transform="translate(1337.747 -575.64)" fill="#202020"/>
    <path id="Path_12188" data-name="Path 12188" d="M-651.531,598.644h.012c0-5.589-.033-11.178.015-16.767.023-2.732-.615-5.2-3.765-5.252-3.32-.051-4.187,2.468-4.186,5.365q.006,16.573-.009,33.146c-.006,2.768,1.107,5.375,3.8,5.377,2.818,0,4.246-2.382,4.167-5.493C-651.63,609.566-651.531,604.1-651.531,598.644Z" transform="translate(1216.966 -575.771)" fill="#202020"/>
    <path id="Path_12189" data-name="Path 12189" d="M-1246.457,582.369c-.027-2.532-.173-5.3-3.625-5.338-3.417-.043-3.717,2.568-3.717,5.194,0,2.984-.095,5.973.034,8.951.118,2.725-1.122,3.742-3.724,3.682-3.372-.076-6.75-.1-10.119.031-2.239.086-4.183.906-4.161,3.615.022,2.634,1.758,3.559,4.127,3.585,3.372.036,6.747.108,10.117.016,2.575-.071,3.874.82,3.756,3.593-.134,3.108-.02,6.227-.016,9.341,0,2.541.505,4.9,3.634,4.92s3.676-2.4,3.7-4.893c.052-5.449.016-10.9.013-16.349S-1246.4,587.817-1246.457,582.369Z" transform="translate(1351.267 -575.859)" fill="#202020"/>
    <path id="Path_12190" data-name="Path 12190" d="M-775.289,598.505c0-5.72.084-11.442-.04-17.16-.052-2.382-.981-4.479-3.9-4.313-2.6.148-3.445,1.935-3.435,4.314.014,3.25-.086,6.5.009,9.748.077,2.644-1.029,3.822-3.7,3.758-3.378-.081-6.763-.079-10.14.027-2.279.072-4.157.916-4.143,3.625.014,2.686,1.838,3.523,4.15,3.576a90.575,90.575,0,0,0,9.356,0c3.536-.283,4.65,1.29,4.479,4.545-.143,2.723-.08,5.458-.051,8.188.027,2.611.319,5.231,3.806,5.118,3.164-.1,3.559-2.625,3.6-5.043.084-5.46.026-10.922.026-16.382Z" transform="translate(1247.931 -575.858)" fill="#202020"/>
    <path id="Path_12191" data-name="Path 12191" d="M-1346.807,595.649c-2.566.063-3.831,1.8-3.817,4.44.033,6.733.061,13.468-.017,20.2a4,4,0,0,0,3.879,4.408c2.2.073,4-1.575,3.994-4.258q0-5.05,0-10.1h.018c0-3.366-.015-6.733,0-10.1C-1342.729,597.475-1343.973,595.581-1346.807,595.649Z" transform="translate(1368.567 -579.943)" fill="#202020"/>
    <path id="Path_12192" data-name="Path 12192" d="M-1171.91,575.777a107.937,107.937,0,0,0-14.413-.011c-2.4.148-4.748,1.742-4.906,4.258-.193,3.086,2.605,3.941,5.091,4.292a31.617,31.617,0,0,0,5.182.058c3.878-.445,6.712.308,9.572-.486,2.174-.6,3.5-1.532,3.332-3.955A4.231,4.231,0,0,0-1171.91,575.777Z" transform="translate(1333.604 -575.53)" fill="#202020"/>
    <path id="Path_12193" data-name="Path 12193" d="M-1187.363,607.093a32.285,32.285,0,0,0,4.031.3c2.509-.207,4.449.267,6.36-.494,1.5-.6,2.719-1.263,3.068-3.01.368-1.849-.6-2.838-1.972-3.82-2.18-1.56-10.76-1.96-12.909-.291-1.256.977-3.01,1.887-2.5,3.991A4.461,4.461,0,0,0-1187.363,607.093Z" transform="translate(1333.633 -580.612)" fill="#202020"/>
    <path id="Path_12194" data-name="Path 12194" d="M-812.739,598.18q0-8.749,0-17.5c0-2.542-.7-4.886-3.614-5.017-3.2-.145-4.516,1.953-4.509,5.037.022,11.664.054,23.329-.022,34.992-.02,3.085,1.462,4.634,4.335,4.69,3.053.059,3.809-2.146,3.821-4.708.028-5.832.009-11.664.009-17.5Z" transform="translate(1252.372 -575.558)" fill="#202020"/>
    <path id="Path_12195" data-name="Path 12195" d="M-1057.04,589.726c2.643,1.334,4.874-.55,4.97-3.515.121-3.718-6.882-8.872-10.456-7.7a3.55,3.55,0,0,0-2,5.429C-1062.8,586.844-1059.814,588.327-1057.04,589.726Z" transform="translate(1305.943 -576.148)" fill="#202020"/>
    <path id="Path_12196" data-name="Path 12196" d="M-1055.723,616.136c-2.441.017-8.709,4.276-9.512,6.335-.866,2.224,1.807,5.773,4.087,5.2a16.306,16.306,0,0,0,8.339-5.333c1.167-1.345.844-3.225.229-4.84C-1053.167,615.961-1054.7,616.362-1055.723,616.136Z" transform="translate(1306.003 -584.437)" fill="#202020"/>
    <path id="Path_12197" data-name="Path 12197" d="M-1171.759,623.212c-5.062-.071-10.126-.047-15.188.022a3.129,3.129,0,0,0-3.347,3.5,3.262,3.262,0,0,0,3.517,3.39c2.467.019,4.935,0,7.4,0v.048c2.469,0,4.938.031,7.406-.009,2.327-.038,3.8-1.421,3.806-3.579A3.345,3.345,0,0,0-1171.759,623.212Z" transform="translate(1333.397 -585.979)" fill="#202020"/>
  </g>
</svg>
